<svg id="Ebene_1" data-name="Ebene 1" xmlns="http://www.w3.org/2000/svg" viewBox="0 0 396.85 141.73"><defs><style>.cls-1{fill:#fff;}.cls-2{fill:#3aaa35;}.cls-3{fill:#ffed00;}.cls-4{fill:#ea5b0c;}.cls-5{fill:#e30613;}.cls-6{fill:#82368c;}.cls-7{fill:#312783;}.cls-8{fill:#009fe3;}</style></defs><path class="cls-1" d="M39.69,0V141.73H23.91v-77H16.1v77H0V12.91q0-6.6,3.41-9.76T14.48,0ZM16.43,50.66h7V14.13h-7Z"/><rect class="cls-2" x="43.23" width="12.05" height="16.05"/><rect class="cls-3" x="43.23" y="20.9" width="12.05" height="16.05"/><rect class="cls-4" x="43.23" y="41.8" width="12.05" height="16.05"/><rect class="cls-5" x="43.23" y="62.69" width="12.05" height="16.05"/><rect class="cls-6" x="43.23" y="83.59" width="12.05" height="16.05"/><rect class="cls-7" x="43.23" y="104.49" width="12.05" height="16.05"/><rect class="cls-8" x="43.23" y="125.69" width="12.05" height="16.05"/><path class="cls-1" d="M72.77,59.57,92.71.47h19l19.94,59.1H116.31l-3.89-12.41H92l-3.9,12.41ZM109,36.31l-6.58-21H102l-6.55,21Z"/><path class="cls-1" d="M134,.47h14.11V22.84h.29a12.91,12.91,0,0,1,12.55-8.17c9.26,0,17.63,7.13,17.63,22.77,0,15.09-7.9,22.76-17.71,22.76-6.7,0-10.68-3.72-12.47-7.82h-.43v7.19H134Zm22,48.74c5.22,0,8.11-4.65,8.11-11.8S161.18,25.69,156,25.69s-8.17,4.48-8.17,11.72S150.8,49.21,156,49.21Z"/><path class="cls-1" d="M207.64,29.13c-.4-2.8-3-4.79-6.72-4.79-3.26,0-5.89,1.38-5.86,3.63,0,1.71,1.18,3,4.93,3.78l8.54,1.62c8.83,1.7,13.1,5.54,13.16,12-.06,9.12-8.68,15-20.54,15-12.67,0-20.2-5.63-21.21-14.4l13.94-.35c.6,3.23,3.31,5,7.33,5,3.6,0,6.08-1.47,6.14-3.69-.06-2-1.73-3.12-5.39-3.84l-7.74-1.47c-8.86-1.64-13.21-6-13.16-12.84-.05-8.89,7.59-14.11,19.6-14.11S219.84,20,220.59,28.78Z"/><path class="cls-1" d="M249.57,25.64h-8v20c0,2.63,1.3,3.55,3.58,3.55a15.92,15.92,0,0,0,3.09-.43l2.14,10.18a29.17,29.17,0,0,1-7.22,1.27c-9.95.47-15.78-4-15.7-13V25.64h-5.85V15.25h5.85V4.63h14.11V15.25h8Z"/><path class="cls-1" d="M252.71,15.25h13.71v8.08h.46c1.62-5.86,5.48-8.69,10.33-8.69a16.1,16.1,0,0,1,4,.52V27.42a21,21,0,0,0-5.54-.75,8.47,8.47,0,0,0-8.81,8.83V59.57H252.71Z"/><path class="cls-1" d="M279.12,47.28c0-9.81,7.5-13.13,16.48-13.88,7.56-.67,10.5-1.24,10.5-4V29.3c0-3-2.19-4.65-5.66-4.65-3.72,0-6.06,1.74-6.66,4.56l-13-.46c1.12-8.08,7.87-14.08,19.79-14.08,11.28,0,19.62,5.4,19.62,14.77V59.57H306.91V53.39h-.35c-2.42,4.53-6.69,6.93-12.87,6.93C285.21,60.32,279.12,56.05,279.12,47.28Zm27.07-3.47V39.6c-1.59.84-4.82,1.42-7.45,1.79-4,.61-6.26,2.34-6.26,5.19s2.31,4.5,5.57,4.5C302.55,51.08,306.19,48.14,306.19,43.81Z"/><path class="cls-1" d="M324.71.47h14.11V31.12h.64l12.46-15.87h16l-15.73,19.3,16.36,25h-16.3L341.68,42.8l-2.86,3.47v13.3H324.71Z"/><path class="cls-1" d="M393.94,25.64h-8v20c0,2.63,1.3,3.55,3.58,3.55a15.92,15.92,0,0,0,3.09-.43l2.13,10.18a29,29,0,0,1-7.21,1.27c-9.95.47-15.78-4-15.7-13V25.64H366V15.25h5.85V4.63h14.11V15.25h8Z"/><path class="cls-1" d="M98.28,92.72c-5.54,0-8.31,2.34-8.34,5.57-.12,3.52,3.29,5.31,8.66,6.46l5.07,1.16c11.66,2.56,18,8.33,18.1,17.77-.06,11.22-8.78,17.89-23.49,17.89-14.86,0-24.47-6.61-24.64-20.43H87.31c.32,5.68,4.48,8.63,10.79,8.63,5.75,0,9.12-2.51,9.18-6.12-.06-3.32-3-5.08-9.46-6.58l-6.18-1.44c-10.21-2.34-16.5-7.39-16.47-16.36-.09-11,9.63-18.35,23.14-18.35,13.73,0,22.53,7.47,22.65,18.52H107.28C106.91,95.23,103.85,92.72,98.28,92.72Z"/><path class="cls-1" d="M150,106.89h-8v20c0,2.63,1.3,3.55,3.58,3.55a15.92,15.92,0,0,0,3.09-.43l2.13,10.18a29,29,0,0,1-7.21,1.27c-10,.47-15.78-4-15.7-13V106.89H122V96.5h5.85V85.88H142V96.5h8Z"/><path class="cls-1" d="M181.7,96.5h14.08v44.32H182.33v-8.25h-.46c-2,5.42-6.89,8.83-13.53,8.83-9.12,0-15.21-6.64-15.24-16.65V96.5h14.11V122c0,4.82,2.69,7.76,7,7.76s7.47-2.89,7.47-8.05Z"/><path class="cls-1" d="M199.16,118.69c0-15.64,8.39-22.77,17.66-22.77a12.87,12.87,0,0,1,12.52,8.17h.29V81.73h14.11v59.09h-14v-7.19h-.43c-1.79,4.1-5.77,7.82-12.47,7.82C207.09,141.45,199.16,133.78,199.16,118.69Zm30.78,0c0-7.24-3-11.72-8.16-11.72s-8.14,4.59-8.14,11.72,2.92,11.8,8.14,11.8S229.94,125.84,229.94,118.66Z"/><path class="cls-1" d="M248.44,84.58a7.26,7.26,0,1,1,7.25,6.75A7,7,0,0,1,248.44,84.58Zm.18,11.92h14.11v44.32H248.62Z"/><path class="cls-1" d="M265.9,118.8c0-13.67,8.46-22.88,22.4-22.88s22.39,9.21,22.39,22.88-8.46,22.86-22.39,22.86S265.9,132.45,265.9,118.8Zm30.42-.08c0-7.36-2.89-12.35-7.94-12.35-5.22,0-8.11,5-8.11,12.35S283.16,131,288.38,131C293.43,131,296.32,126.05,296.32,118.72Z"/></svg>